<?xml version="1.0" encoding="utf-8"?>
<!-- Generator: Adobe Illustrator 16.0.0, SVG Export Plug-In . SVG Version: 6.00 Build 0)  -->
<!DOCTYPE svg PUBLIC "-//W3C//DTD SVG 1.1//EN" "http://www.w3.org/Graphics/SVG/1.1/DTD/svg11.dtd">
<svg version="1.1" id="logo" xmlns="http://www.w3.org/2000/svg" xmlns:xlink="http://www.w3.org/1999/xlink" x="0px" y="0px"
	 width="105px" height="60px" viewBox="47.666 -10.5 105 60" enable-background="new 47.666 -10.5 105 60" xml:space="preserve">
<g>
	<g>
		<path fill="#FFFFFF" d="M148.639,19.23c0.221,0.148,0.441,0.201,0.648,0.165c0.213-0.038,0.377-0.151,0.494-0.335
			c0.123-0.196,0.156-0.394,0.102-0.605c-0.053-0.204-0.197-0.389-0.439-0.546c-0.156-0.102-0.299-0.165-0.447-0.188
			c-0.154-0.023-0.291-0.004-0.416,0.056c-0.129,0.059-0.23,0.151-0.311,0.278c-0.117,0.177-0.152,0.372-0.115,0.578
			C148.195,18.845,148.35,19.042,148.639,19.23z M148.461,19.482c-0.309-0.202-0.502-0.451-0.566-0.733
			c-0.07-0.286-0.014-0.566,0.154-0.833c0.113-0.174,0.256-0.307,0.434-0.394c0.172-0.085,0.357-0.121,0.553-0.099
			c0.197,0.028,0.391,0.1,0.576,0.223c0.189,0.123,0.334,0.275,0.434,0.457c0.102,0.173,0.148,0.363,0.133,0.553
			c-0.014,0.193-0.076,0.375-0.182,0.54c-0.113,0.183-0.26,0.315-0.438,0.396c-0.176,0.087-0.359,0.118-0.559,0.097
			C148.807,19.664,148.631,19.592,148.461,19.482z M49.709,1.802h2.139v9.253c0,0.824,0.301,1.504,0.898,2.036
			c0.604,0.53,1.4,0.8,2.395,0.8c1.047,0,1.871-0.258,2.471-0.773c0.605-0.52,0.904-1.223,0.904-2.104V1.802h2.139v9.405
			c0,1.363-0.492,2.431-1.479,3.201c-0.98,0.765-2.318,1.144-4.02,1.144c-1.742,0-3.086-0.371-4.027-1.12
			c-0.949-0.752-1.42-1.832-1.42-3.235V1.802z M73.939,15.52l-8.066-9.898v9.704h-2.027V1.802h0.848l7.846,9.361V1.802h2.027V15.52
			H73.939z M78.105,15.325V1.802h2.135v13.523H78.105z M85.943,3.466v3.748h5.473v1.569h-5.473v6.542h-2.133V1.802h9.629v1.664
			H85.943z M103.881,15.325l-4.15-5.805c-0.48,0-1.227-0.032-2.26-0.092v5.896h-2.135V1.788c0.078,0,0.631-0.021,1.658-0.071
			c1.023-0.042,1.77-0.065,2.242-0.065c3.748,0,5.619,1.293,5.619,3.883c0,0.853-0.297,1.615-0.902,2.298
			c-0.604,0.682-1.316,1.106-2.148,1.268l4.516,6.226H103.881z M97.471,3.445v4.409c0.514,0.063,1.006,0.094,1.488,0.094
			c1.271,0,2.201-0.179,2.783-0.54c0.582-0.352,0.871-0.994,0.871-1.916c0-0.759-0.316-1.304-0.934-1.638
			c-0.629-0.336-1.611-0.5-2.951-0.5C98.51,3.354,98.096,3.382,97.471,3.445z M116.793,15.325l-1.072-2.855h-5.826l-1.16,2.855
			h-2.375l6.34-13.712h0.568l5.883,13.712H116.793z M112.885,5.168l-2.428,5.94h4.65L112.885,5.168z M130.869,15.52l-8.066-9.898
			v9.704h-2.027V1.802h0.852l7.844,9.361V1.802h2.027V15.52H130.869z M134.141,15.325v-0.463l6.689-11.397l-6.689,0.001V1.802
			l9.613-0.002v0.464l-6.717,11.4h6.955v1.661H134.141z M121.5-6.846l0.25-0.158l0.67,1.086c0.113,0.191,0.186,0.357,0.211,0.494
			c0.027,0.139,0.008,0.273-0.057,0.415c-0.064,0.14-0.188,0.263-0.369,0.377c-0.172,0.112-0.332,0.168-0.48,0.176
			c-0.148,0.007-0.279-0.028-0.398-0.116c-0.119-0.083-0.242-0.226-0.359-0.427l-0.672-1.085l0.246-0.155l0.666,1.085
			c0.104,0.166,0.195,0.274,0.271,0.333c0.078,0.062,0.164,0.089,0.262,0.084c0.098-0.006,0.197-0.042,0.309-0.106
			c0.178-0.112,0.279-0.234,0.305-0.367c0.023-0.131-0.039-0.315-0.182-0.548L121.5-6.846z M123.363-5.401l-0.924-2.012l0.264-0.128
			l1.771,1.094l-0.73-1.578l0.254-0.12l0.924,2.011l-0.266,0.127l-1.77-1.088l0.732,1.576L123.363-5.401z M125.506-6.418
			l-0.754-2.084l0.275-0.098l0.752,2.082L125.506-6.418z M126.91-6.799l-1.418-1.898l0.303-0.086l0.986,1.389
			c0.076,0.11,0.146,0.218,0.207,0.316c0-0.126,0-0.251,0.014-0.379l0.125-1.712l0.283-0.082l-0.213,2.366L126.91-6.799z
			 M128.332-7.197l-0.346-2.19l1.557-0.247l0.043,0.258l-1.273,0.201l0.107,0.674l1.191-0.188l0.043,0.257l-1.189,0.189l0.113,0.744
			l1.324-0.208l0.039,0.254L128.332-7.197z M130.463-7.48l-0.08-2.213l0.963-0.032c0.199,0,0.35,0.009,0.455,0.045
			c0.098,0.039,0.184,0.105,0.246,0.201c0.064,0.101,0.096,0.21,0.104,0.332c0.002,0.158-0.041,0.294-0.137,0.405
			c-0.098,0.108-0.246,0.181-0.455,0.215c0.074,0.036,0.137,0.072,0.172,0.106c0.098,0.078,0.176,0.177,0.254,0.287l0.4,0.591
			l-0.359,0.012l-0.312-0.45c-0.082-0.131-0.16-0.231-0.215-0.298c-0.057-0.066-0.107-0.115-0.154-0.142
			c-0.039-0.028-0.084-0.048-0.129-0.056c-0.035-0.007-0.09-0.009-0.164-0.007l-0.336,0.012l0.037,0.984L130.463-7.48z
			 M130.707-8.726l0.621-0.021c0.135-0.005,0.232-0.019,0.305-0.054c0.076-0.026,0.133-0.074,0.168-0.135
			c0.035-0.062,0.051-0.132,0.051-0.203c-0.004-0.104-0.045-0.188-0.121-0.256c-0.078-0.064-0.197-0.092-0.361-0.088l-0.686,0.023
			L130.707-8.726z M132.584-8.24l0.273-0.004c0.008,0.108,0.029,0.203,0.072,0.275c0.041,0.076,0.111,0.141,0.211,0.193
			c0.096,0.053,0.205,0.081,0.324,0.088c0.111,0.008,0.209,0,0.299-0.027c0.084-0.028,0.152-0.069,0.195-0.124
			c0.045-0.054,0.074-0.115,0.074-0.184c0.008-0.067-0.01-0.132-0.045-0.186c-0.041-0.055-0.098-0.101-0.189-0.146
			c-0.057-0.026-0.18-0.073-0.381-0.138c-0.199-0.062-0.334-0.117-0.41-0.17c-0.102-0.062-0.172-0.138-0.217-0.22
			c-0.047-0.086-0.066-0.178-0.061-0.281c0.01-0.111,0.045-0.215,0.117-0.307c0.068-0.092,0.162-0.159,0.285-0.201
			s0.262-0.056,0.408-0.047c0.162,0.013,0.301,0.047,0.422,0.109c0.121,0.063,0.209,0.149,0.268,0.256
			c0.061,0.109,0.084,0.224,0.084,0.355h-0.279c-0.002-0.141-0.047-0.246-0.129-0.326c-0.08-0.078-0.203-0.121-0.373-0.136
			c-0.176-0.011-0.305,0.012-0.389,0.07c-0.084,0.061-0.131,0.135-0.135,0.228c-0.006,0.075,0.016,0.145,0.074,0.201
			c0.049,0.056,0.189,0.118,0.422,0.188c0.23,0.069,0.391,0.131,0.471,0.178c0.127,0.065,0.209,0.15,0.264,0.248
			c0.059,0.092,0.082,0.199,0.074,0.318c-0.008,0.118-0.047,0.223-0.123,0.323c-0.074,0.099-0.176,0.172-0.301,0.219
			c-0.129,0.05-0.27,0.068-0.426,0.06c-0.197-0.014-0.363-0.06-0.494-0.123c-0.123-0.071-0.225-0.165-0.291-0.288
			C132.611-7.957,132.58-8.09,132.584-8.24z M134.861-7.265l0.375-2.182l0.283,0.053l-0.375,2.181L134.861-7.265z M135.695-7.12
			l0.523-2.147l0.734,0.188c0.162,0.041,0.289,0.083,0.371,0.125c0.111,0.06,0.203,0.136,0.273,0.231
			c0.086,0.125,0.143,0.271,0.16,0.435c0.02,0.165,0.006,0.341-0.041,0.533c-0.043,0.16-0.092,0.301-0.164,0.416
			c-0.066,0.117-0.143,0.212-0.219,0.278c-0.08,0.067-0.16,0.116-0.244,0.146c-0.076,0.028-0.174,0.041-0.277,0.041
			c-0.105-0.003-0.221-0.013-0.352-0.047L135.695-7.12z M136.039-7.298l0.453,0.114c0.137,0.036,0.252,0.053,0.338,0.046
			c0.086-0.01,0.152-0.028,0.217-0.062c0.086-0.052,0.16-0.13,0.225-0.235c0.062-0.106,0.113-0.238,0.152-0.398
			c0.055-0.228,0.062-0.407,0.02-0.547c-0.041-0.142-0.109-0.243-0.209-0.313c-0.061-0.045-0.178-0.093-0.35-0.137l-0.443-0.115
			L136.039-7.298z M137.709-6.627l1.594-1.732l0.291,0.121l0.014,2.393l-0.305-0.128l0.012-0.716l-0.852-0.354l-0.469,0.531
			L137.709-6.627z M138.623-7.232l0.697,0.288l0.01-0.66c0.012-0.199,0.018-0.359,0.027-0.485c-0.08,0.12-0.168,0.235-0.271,0.347
			L138.623-7.232z M139.812-5.681l1.086-1.914l0.654,0.384c0.148,0.084,0.254,0.16,0.32,0.229c0.094,0.088,0.162,0.185,0.201,0.295
			c0.053,0.147,0.064,0.3,0.035,0.462c-0.021,0.163-0.084,0.327-0.178,0.499c-0.084,0.146-0.174,0.261-0.275,0.354
			c-0.096,0.096-0.191,0.162-0.285,0.204c-0.094,0.046-0.189,0.069-0.273,0.071c-0.086,0.009-0.182-0.002-0.281-0.035
			c-0.1-0.031-0.209-0.078-0.324-0.145L139.812-5.681z M140.191-5.757l0.402,0.237c0.123,0.075,0.229,0.118,0.314,0.138
			c0.084,0.021,0.156,0.021,0.225,0c0.096-0.025,0.188-0.078,0.275-0.158c0.094-0.086,0.178-0.199,0.264-0.342
			c0.113-0.202,0.166-0.376,0.166-0.525c-0.004-0.145-0.041-0.262-0.115-0.354c-0.051-0.064-0.15-0.14-0.301-0.229l-0.396-0.233
			L140.191-5.757z M142.521-3.974l1.373-1.719l0.645,0.528c0.107,0.092,0.191,0.166,0.246,0.229c0.068,0.08,0.117,0.164,0.145,0.25
			c0.025,0.09,0.027,0.181,0,0.279c-0.021,0.1-0.064,0.192-0.131,0.277c-0.123,0.145-0.26,0.23-0.439,0.257
			c-0.168,0.024-0.377-0.061-0.617-0.257l-0.436-0.363l-0.561,0.702L142.521-3.974z M143.467-4.691l0.441,0.358
			c0.145,0.122,0.271,0.177,0.375,0.176c0.102-0.005,0.193-0.059,0.271-0.154c0.061-0.074,0.092-0.145,0.096-0.231
			c0.006-0.081-0.016-0.153-0.055-0.216c-0.037-0.04-0.1-0.105-0.207-0.19l-0.434-0.356L143.467-4.691z M144.072-2.627l1.6-1.508
			l0.664,0.719c0.135,0.148,0.219,0.268,0.258,0.373c0.041,0.1,0.047,0.208,0.018,0.323c-0.033,0.114-0.098,0.213-0.184,0.296
			c-0.117,0.106-0.24,0.158-0.383,0.158c-0.146-0.006-0.303-0.068-0.471-0.206c0.027,0.083,0.043,0.149,0.043,0.2
			c0,0.121-0.016,0.248-0.049,0.382l-0.18,0.691l-0.244-0.268l0.137-0.53c0.035-0.154,0.059-0.275,0.078-0.362
			c0.014-0.09,0.014-0.158,0.004-0.211c-0.01-0.051-0.023-0.094-0.051-0.135c-0.014-0.029-0.045-0.074-0.1-0.128l-0.229-0.249
			l-0.709,0.669L144.072-2.627z M145.17-3.251l0.422,0.458c0.092,0.102,0.172,0.166,0.242,0.199c0.068,0.037,0.139,0.05,0.211,0.037
			c0.068-0.013,0.129-0.041,0.182-0.092c0.076-0.071,0.115-0.157,0.109-0.257c0-0.104-0.057-0.212-0.166-0.334l-0.473-0.513
			L145.17-3.251z M145.625-0.907l1.695-1.391l0.182,0.229l-1.695,1.39L145.625-0.907z M146.543,0.359l1.371-1.925l0.172,0.269
			l-1.025,1.352c-0.078,0.112-0.162,0.213-0.236,0.301c0.123-0.038,0.24-0.07,0.369-0.097l1.646-0.374L149,0.139l-2.295,0.475
			L146.543,0.359z M147.084,1.243L149.406,1l0.148,0.288l-1.543,1.806l-0.148-0.303l0.477-0.524l-0.424-0.835l-0.697,0.088
			L147.084,1.243z M148.168,1.4l0.338,0.673l0.438-0.483c0.131-0.143,0.24-0.265,0.33-0.353c-0.141,0.044-0.277,0.069-0.426,0.088
			L148.168,1.4z M148.188,3.32l2.053-0.751l0.258,0.718c0.061,0.162,0.094,0.29,0.104,0.383c0.018,0.128,0,0.25-0.037,0.358
			c-0.055,0.145-0.141,0.269-0.262,0.375c-0.121,0.107-0.271,0.196-0.457,0.262c-0.154,0.059-0.301,0.088-0.439,0.096
			c-0.127,0.005-0.246,0-0.346-0.031c-0.1-0.029-0.188-0.07-0.254-0.121c-0.07-0.055-0.139-0.123-0.189-0.214
			c-0.061-0.083-0.111-0.194-0.16-0.321L148.188,3.32z M148.527,3.511l0.16,0.442c0.049,0.14,0.096,0.24,0.152,0.308
			c0.053,0.074,0.115,0.122,0.174,0.152c0.092,0.038,0.193,0.06,0.318,0.056c0.119-0.003,0.26-0.034,0.414-0.091
			c0.219-0.074,0.371-0.176,0.455-0.291c0.092-0.112,0.139-0.227,0.141-0.343c0.004-0.084-0.027-0.206-0.084-0.373l-0.16-0.436
			L148.527,3.511z M148.91,5.228l2.322,0.29l0.08,0.314l-1.906,1.412l-0.076-0.33l0.578-0.407l-0.223-0.906l-0.695-0.073
			L148.91,5.228z M149.934,5.626l0.184,0.734l0.529-0.376c0.164-0.107,0.299-0.197,0.406-0.261
			c-0.146,0.006-0.295-0.003-0.439-0.017L149.934,5.626z M129.377,29.159l0.621-2.188l1.453,0.425l-0.074,0.255l-1.168-0.334
			l-0.191,0.68l1.012,0.298l-0.072,0.247l-1.01-0.289l-0.281,0.99L129.377,29.159z M131.383,29.696l0.271-2.259l0.99,0.119
			c0.199,0.028,0.346,0.072,0.447,0.123c0.09,0.052,0.17,0.129,0.217,0.24c0.049,0.112,0.068,0.231,0.055,0.355
			c-0.02,0.159-0.09,0.281-0.207,0.379c-0.115,0.107-0.281,0.156-0.492,0.156c0.068,0.047,0.125,0.096,0.16,0.134
			c0.076,0.091,0.146,0.2,0.207,0.334l0.312,0.659l-0.373-0.043l-0.232-0.508c-0.074-0.145-0.127-0.26-0.174-0.336
			c-0.051-0.087-0.094-0.136-0.133-0.172c-0.041-0.032-0.086-0.062-0.129-0.077c-0.033-0.005-0.084-0.02-0.162-0.026l-0.34-0.05
			l-0.123,1.002L131.383,29.696z M131.832,28.47l0.631,0.08c0.139,0.014,0.246,0.014,0.322,0c0.074-0.026,0.141-0.061,0.186-0.12
			c0.049-0.055,0.076-0.123,0.082-0.198c0.02-0.101-0.012-0.188-0.082-0.273c-0.064-0.078-0.18-0.124-0.344-0.149l-0.703-0.087
			L131.832,28.47z M133.5,29.921l0.783-2.303l0.324-0.012l0.994,2.237l-0.338,0.01l-0.283-0.676l-0.943,0.033l-0.219,0.696
			L133.5,29.921z M134.117,28.964l0.764-0.028l-0.256-0.619c-0.076-0.191-0.137-0.343-0.182-0.469
			c-0.025,0.148-0.057,0.291-0.105,0.438L134.117,28.964z M135.975,29.743l-0.428-2.226l0.299-0.062l1.488,1.522l-0.34-1.753
			l0.283-0.052l0.43,2.229l-0.297,0.062l-1.488-1.53l0.33,1.757L135.975,29.743z M138.221,29.342l-0.094-0.252l0.588-1.773
			c0.045-0.126,0.09-0.235,0.129-0.333l-1.174,0.432l-0.09-0.247l1.504-0.563l0.09,0.256l-0.65,1.922l-0.072,0.195l1.348-0.499
			l0.088,0.252L138.221,29.342z M142.344,27.363l-1.051-1.702l-0.629,0.398l-0.137-0.225l1.508-0.954l0.139,0.224l-0.625,0.398
			l1.049,1.705L142.344,27.363z M143.143,26.81l-0.666-2.339l0.264-0.203l2.076,1.263l-0.27,0.204l-0.617-0.387l-0.752,0.574
			l0.215,0.699L143.143,26.81z M143.1,25.672l0.613-0.464l-0.561-0.365c-0.172-0.109-0.305-0.203-0.408-0.28
			c0.059,0.142,0.113,0.28,0.16,0.429L143.1,25.672z M145.047,25.271l-1.553-1.636l0.32-0.315l1.484,0.783l0.307,0.164l-0.166-0.345
			l-0.693-1.515l0.285-0.283l1.561,1.636l-0.207,0.195l-1.305-1.365l0.832,1.829l-0.191,0.191l-1.795-0.94l1.33,1.4L145.047,25.271z
			 M146.809,23.492l-1.168-2.126l0.211-0.252l2.311,0.751l-0.221,0.26l-0.686-0.241l-0.609,0.734l0.365,0.63L146.809,23.492z
			 M146.514,22.393l0.498-0.592l-0.627-0.226c-0.191-0.068-0.344-0.131-0.465-0.178c0.098,0.121,0.182,0.247,0.254,0.37
			L146.514,22.393z M148.566,21.272l-0.76-0.576l-1.549-0.09l0.213-0.287l0.809,0.054c0.15,0.005,0.297,0.021,0.441,0.043
			c-0.051-0.126-0.107-0.271-0.17-0.441l-0.266-0.753l0.207-0.282l0.496,1.517l0.762,0.574L148.566,21.272z"/>
		<path fill-rule="evenodd" clip-rule="evenodd" fill="#FF7600" d="M57.723,28.466c-0.592,0.231-0.979,0.162-1.617,0.162
			c-0.414,0-0.684,0.012-1.059-0.162c-0.344-0.159-0.469-0.499-0.854-0.499c-0.514,0-0.635,0.512-1.01,0.859
			c-0.244,0.229-0.57,0.098-0.818,0.329c-0.354,0.332-0.455,0.677-0.455,1.16c0,0.458,0.064,0.837,0.42,1.095
			c0.266,0.176,0.529,0.047,0.824,0.198c0.191,0.098,0.166,0.325,0.354,0.43c0.543,0.31,0.957,0.2,1.578,0.2
			c0.391,0,0.605,0,0.996,0c0.125,0,0.188,0.062,0.309,0.062c0.307,0,0.473,0,0.775,0l2.059-0.531c0,0,3.807-1.166,13.07-4.691
			c8.689-3.316,28.889-9.008,35.025-7.55c0,0-14.951,2.677-20.648,5.758c-3.789,2.045,1.242,2.045,3.922,0.665
			c0,0,7.191-2.189,7.91-2.116c0,0,1.105,0.79,3.068,0.064c1.961-0.729,8.758-0.801,8.758-0.801s8.82-0.598,11.83-0.598
			c0.061,0,14.508-2.115,17.445-1.718c0,0,1.631,0.067,2.354,0.201c0.719,0.133,2.943-0.332,0.395-0.928
			c0,0-11.176-1.589-24.639,0.198c0,0-11.438,1.849-12.873,1.789c0,0-1.963-0.132,0.195-0.532c2.154-0.395,8.039-1.32,8.625-3.571
			c0,0-7.84,0.394-8.43,0.463c-0.586,0.064-2.029,0.462-3.268,0.595c-1.24,0.133-9.67,1.059-27.969,5.166
			c0,0-13.594,3.904-14.639,4.035S57.723,28.466,57.723,28.466z"/>
	</g>
	<g>
		<path fill="#FFFFFF" d="M51.045,39.351v9.207H49.02v-9.207H51.045z"/>
		<path fill="#FFFFFF" d="M53.92,41.891v0.929h0.039c0.232-0.387,0.533-0.669,0.902-0.845s0.748-0.265,1.135-0.265
			c0.49,0,0.893,0.067,1.207,0.2c0.312,0.134,0.561,0.318,0.74,0.555c0.182,0.236,0.309,0.524,0.381,0.864
			c0.072,0.339,0.109,0.715,0.109,1.128v4.101h-1.83v-3.766c0-0.55-0.088-0.961-0.26-1.231s-0.477-0.406-0.914-0.406
			c-0.5,0-0.861,0.148-1.084,0.445c-0.225,0.296-0.336,0.784-0.336,1.464v3.494h-1.83v-6.667H53.92z"/>
		<path fill="#FFFFFF" d="M63.037,41.891v1.226h-1.342v3.301c0,0.31,0.053,0.516,0.156,0.619c0.102,0.104,0.309,0.155,0.619,0.155
			c0.102,0,0.201-0.005,0.295-0.014c0.096-0.008,0.186-0.021,0.271-0.038v1.418c-0.154,0.025-0.326,0.043-0.516,0.052
			s-0.375,0.013-0.555,0.013c-0.283,0-0.553-0.02-0.807-0.058c-0.254-0.039-0.477-0.114-0.67-0.226s-0.346-0.271-0.457-0.478
			c-0.113-0.206-0.168-0.477-0.168-0.812v-3.933h-1.109v-1.226h1.109v-1.999h1.83v1.999H63.037z"/>
		<path fill="#FFFFFF" d="M65.424,46.959c0.273,0.267,0.67,0.399,1.186,0.399c0.369,0,0.688-0.092,0.955-0.277
			c0.266-0.185,0.43-0.38,0.49-0.586h1.611c-0.258,0.799-0.654,1.371-1.188,1.715s-1.178,0.516-1.934,0.516
			c-0.525,0-0.998-0.084-1.418-0.252c-0.422-0.167-0.779-0.405-1.07-0.716c-0.293-0.309-0.52-0.679-0.678-1.108
			s-0.238-0.902-0.238-1.419c0-0.498,0.082-0.962,0.244-1.393c0.164-0.43,0.396-0.802,0.697-1.115s0.66-0.561,1.076-0.741
			c0.418-0.181,0.879-0.271,1.387-0.271c0.566,0,1.062,0.11,1.482,0.329c0.422,0.219,0.768,0.514,1.039,0.884
			c0.27,0.369,0.465,0.791,0.586,1.264s0.164,0.967,0.129,1.482h-4.809C64.998,46.263,65.148,46.692,65.424,46.959z M67.492,43.451
			c-0.219-0.24-0.553-0.361-0.998-0.361c-0.293,0-0.535,0.05-0.729,0.148c-0.195,0.1-0.35,0.222-0.465,0.368
			c-0.117,0.146-0.197,0.301-0.246,0.464c-0.047,0.164-0.074,0.31-0.082,0.438h2.979C67.865,44.044,67.713,43.692,67.492,43.451z"/>
		<path fill="#FFFFFF" d="M72.154,41.891v1.238h0.025c0.086-0.206,0.203-0.397,0.35-0.574c0.145-0.176,0.312-0.326,0.502-0.451
			c0.189-0.124,0.391-0.221,0.605-0.29c0.215-0.068,0.439-0.104,0.672-0.104c0.119,0,0.252,0.022,0.398,0.064v1.703
			c-0.086-0.018-0.189-0.032-0.309-0.046c-0.121-0.013-0.236-0.019-0.348-0.019c-0.336,0-0.619,0.056-0.852,0.167
			c-0.232,0.112-0.42,0.265-0.561,0.458c-0.143,0.193-0.244,0.419-0.305,0.677c-0.059,0.258-0.09,0.537-0.09,0.838v3.005h-1.83
			v-6.667H72.154z"/>
		<path fill="#FFFFFF" d="M76.951,41.891v0.929h0.039c0.232-0.387,0.533-0.669,0.902-0.845s0.748-0.265,1.135-0.265
			c0.49,0,0.893,0.067,1.205,0.2c0.314,0.134,0.562,0.318,0.742,0.555s0.307,0.524,0.381,0.864c0.072,0.339,0.109,0.715,0.109,1.128
			v4.101h-1.832v-3.766c0-0.55-0.086-0.961-0.258-1.231s-0.477-0.406-0.914-0.406c-0.5,0-0.861,0.148-1.084,0.445
			c-0.225,0.296-0.336,0.784-0.336,1.464v3.494h-1.83v-6.667H76.951z"/>
		<path fill="#FFFFFF" d="M82.65,42.871c0.189-0.284,0.43-0.512,0.723-0.684s0.621-0.294,0.986-0.367s0.732-0.11,1.104-0.11
			c0.334,0,0.674,0.024,1.018,0.071c0.344,0.048,0.658,0.14,0.941,0.277s0.516,0.328,0.697,0.574
			c0.18,0.244,0.271,0.569,0.271,0.974v3.469c0,0.301,0.016,0.589,0.051,0.863c0.033,0.275,0.094,0.481,0.18,0.619h-1.855
			c-0.035-0.103-0.064-0.208-0.084-0.315c-0.023-0.107-0.037-0.217-0.047-0.329c-0.291,0.301-0.637,0.512-1.031,0.632
			s-0.799,0.181-1.213,0.181c-0.316,0-0.613-0.039-0.889-0.116s-0.516-0.197-0.723-0.36c-0.205-0.164-0.367-0.37-0.482-0.62
			c-0.117-0.248-0.174-0.546-0.174-0.889c0-0.379,0.066-0.69,0.199-0.936s0.305-0.44,0.516-0.587
			c0.211-0.146,0.451-0.255,0.723-0.329c0.27-0.072,0.543-0.131,0.818-0.174s0.545-0.077,0.812-0.104
			c0.266-0.025,0.502-0.064,0.709-0.115c0.207-0.052,0.369-0.127,0.49-0.226c0.119-0.099,0.176-0.243,0.168-0.433
			c0-0.197-0.033-0.354-0.098-0.471s-0.15-0.206-0.258-0.271s-0.232-0.107-0.373-0.129c-0.143-0.021-0.295-0.032-0.457-0.032
			c-0.363,0-0.646,0.077-0.852,0.231c-0.207,0.155-0.328,0.413-0.361,0.774h-1.832C82.354,43.512,82.461,43.154,82.65,42.871z
			 M86.268,45.456c-0.115,0.039-0.24,0.071-0.373,0.097c-0.135,0.026-0.273,0.048-0.42,0.064c-0.146,0.018-0.291,0.039-0.438,0.065
			c-0.139,0.025-0.273,0.06-0.406,0.103c-0.135,0.043-0.25,0.102-0.35,0.175c-0.098,0.072-0.178,0.165-0.238,0.276
			c-0.059,0.112-0.09,0.254-0.09,0.426c0,0.163,0.031,0.301,0.09,0.413c0.061,0.111,0.143,0.199,0.246,0.265
			c0.102,0.064,0.223,0.109,0.361,0.135c0.137,0.026,0.279,0.039,0.426,0.039c0.359,0,0.639-0.061,0.836-0.181
			c0.199-0.12,0.346-0.265,0.439-0.433c0.096-0.167,0.152-0.337,0.174-0.509s0.033-0.31,0.033-0.413v-0.684
			C86.48,45.364,86.385,45.418,86.268,45.456z"/>
		<path fill="#FFFFFF" d="M92.541,43.09c-0.291,0-0.537,0.067-0.734,0.2c-0.197,0.134-0.359,0.306-0.484,0.516
			c-0.123,0.211-0.213,0.443-0.264,0.696c-0.051,0.254-0.076,0.506-0.076,0.755c0,0.24,0.025,0.485,0.076,0.735
			c0.051,0.249,0.135,0.475,0.252,0.677c0.115,0.202,0.273,0.367,0.471,0.496s0.438,0.193,0.723,0.193
			c0.438,0,0.775-0.122,1.012-0.367s0.385-0.574,0.445-0.986h1.766c-0.121,0.885-0.465,1.561-1.031,2.024s-1.293,0.696-2.18,0.696
			c-0.498,0-0.955-0.084-1.373-0.252c-0.418-0.167-0.771-0.401-1.064-0.702c-0.291-0.301-0.52-0.66-0.684-1.077
			c-0.162-0.417-0.244-0.874-0.244-1.373c0-0.516,0.074-0.995,0.227-1.438c0.148-0.442,0.371-0.825,0.664-1.147
			c0.291-0.322,0.648-0.573,1.068-0.754c0.422-0.181,0.904-0.271,1.445-0.271c0.395,0,0.775,0.052,1.141,0.155
			s0.693,0.26,0.98,0.471c0.289,0.211,0.521,0.473,0.703,0.786c0.18,0.314,0.283,0.686,0.309,1.116h-1.791
			C93.775,43.473,93.324,43.09,92.541,43.09z"/>
		<path fill="#FFFFFF" d="M96.359,40.859v-1.509h1.83v1.509H96.359z M98.189,41.891v6.667h-1.83v-6.667H98.189z"/>
		<path fill="#FFFFFF" d="M99.221,43.78c0.164-0.434,0.396-0.804,0.697-1.109c0.301-0.305,0.662-0.542,1.084-0.709
			c0.42-0.168,0.893-0.252,1.418-0.252c0.523,0,0.998,0.084,1.424,0.252c0.428,0.167,0.789,0.404,1.09,0.709
			c0.301,0.306,0.533,0.676,0.697,1.109c0.164,0.435,0.246,0.917,0.246,1.45c0,0.534-0.082,1.015-0.246,1.445
			c-0.164,0.43-0.396,0.797-0.697,1.102c-0.301,0.306-0.662,0.54-1.09,0.703c-0.426,0.163-0.9,0.245-1.424,0.245
			c-0.525,0-0.998-0.082-1.418-0.245c-0.422-0.163-0.783-0.397-1.084-0.703c-0.301-0.305-0.533-0.672-0.697-1.102
			c-0.162-0.431-0.244-0.911-0.244-1.445C98.977,44.697,99.059,44.215,99.221,43.78z M100.885,46.011
			c0.053,0.254,0.141,0.482,0.266,0.684c0.123,0.202,0.289,0.363,0.496,0.483c0.205,0.121,0.465,0.181,0.773,0.181
			c0.311,0,0.57-0.06,0.779-0.181c0.211-0.12,0.379-0.281,0.504-0.483c0.125-0.201,0.213-0.43,0.264-0.684
			c0.053-0.253,0.078-0.514,0.078-0.78c0-0.266-0.025-0.528-0.078-0.786c-0.051-0.258-0.139-0.485-0.264-0.684
			c-0.125-0.197-0.293-0.358-0.504-0.483c-0.209-0.125-0.469-0.188-0.779-0.188c-0.309,0-0.568,0.062-0.773,0.188
			c-0.207,0.125-0.373,0.286-0.496,0.483c-0.125,0.198-0.213,0.426-0.266,0.684c-0.051,0.258-0.076,0.521-0.076,0.786
			C100.809,45.497,100.834,45.758,100.885,46.011z"/>
		<path fill="#FFFFFF" d="M108.352,41.891v0.929h0.039c0.232-0.387,0.533-0.669,0.902-0.845s0.748-0.265,1.135-0.265
			c0.49,0,0.891,0.067,1.205,0.2c0.314,0.134,0.562,0.318,0.742,0.555s0.307,0.524,0.381,0.864c0.072,0.339,0.109,0.715,0.109,1.128
			v4.101h-1.832v-3.766c0-0.55-0.086-0.961-0.258-1.231s-0.477-0.406-0.916-0.406c-0.498,0-0.859,0.148-1.082,0.445
			c-0.225,0.296-0.336,0.784-0.336,1.464v3.494h-1.832v-6.667H108.352z"/>
		<path fill="#FFFFFF" d="M114.051,42.871c0.189-0.284,0.43-0.512,0.723-0.684s0.621-0.294,0.986-0.367s0.732-0.11,1.104-0.11
			c0.334,0,0.674,0.024,1.018,0.071c0.344,0.048,0.658,0.14,0.941,0.277s0.516,0.328,0.697,0.574c0.18,0.244,0.27,0.569,0.27,0.974
			v3.469c0,0.301,0.018,0.589,0.053,0.863c0.033,0.275,0.094,0.481,0.18,0.619h-1.855c-0.035-0.103-0.064-0.208-0.084-0.315
			c-0.023-0.107-0.037-0.217-0.047-0.329c-0.291,0.301-0.635,0.512-1.031,0.632c-0.395,0.12-0.799,0.181-1.211,0.181
			c-0.318,0-0.615-0.039-0.891-0.116s-0.516-0.197-0.723-0.36c-0.205-0.164-0.367-0.37-0.482-0.62
			c-0.117-0.248-0.174-0.546-0.174-0.889c0-0.379,0.066-0.69,0.199-0.936s0.305-0.44,0.516-0.587
			c0.211-0.146,0.451-0.255,0.723-0.329c0.27-0.072,0.543-0.131,0.818-0.174s0.545-0.077,0.812-0.104
			c0.266-0.025,0.504-0.064,0.709-0.115c0.207-0.052,0.369-0.127,0.49-0.226c0.119-0.099,0.176-0.243,0.168-0.433
			c0-0.197-0.033-0.354-0.098-0.471s-0.15-0.206-0.258-0.271s-0.232-0.107-0.373-0.129c-0.143-0.021-0.295-0.032-0.459-0.032
			c-0.361,0-0.645,0.077-0.85,0.231c-0.207,0.155-0.328,0.413-0.361,0.774h-1.832C113.754,43.512,113.861,43.154,114.051,42.871z
			 M117.668,45.456c-0.115,0.039-0.24,0.071-0.373,0.097c-0.133,0.026-0.273,0.048-0.42,0.064c-0.146,0.018-0.291,0.039-0.438,0.065
			c-0.139,0.025-0.273,0.06-0.406,0.103c-0.135,0.043-0.25,0.102-0.348,0.175c-0.1,0.072-0.18,0.165-0.24,0.276
			c-0.059,0.112-0.09,0.254-0.09,0.426c0,0.163,0.031,0.301,0.09,0.413c0.061,0.111,0.143,0.199,0.246,0.265
			c0.104,0.064,0.223,0.109,0.361,0.135c0.137,0.026,0.277,0.039,0.426,0.039c0.359,0,0.639-0.061,0.838-0.181
			c0.197-0.12,0.344-0.265,0.438-0.433c0.094-0.167,0.152-0.337,0.174-0.509s0.033-0.31,0.033-0.413v-0.684
			C117.881,45.364,117.785,45.418,117.668,45.456z"/>
		<path fill="#FFFFFF" d="M122.639,39.351v9.207h-1.83v-9.207H122.639z"/>
		<path fill="#FFFFFF" d="M123.633,41.065l1.238-1.831h2.023l-1.984,1.831H123.633z M125.516,41.891v6.667h-1.832v-6.667H125.516z"
			/>
		<path fill="#FFFFFF" d="M129.564,43.271h-3.211v-1.38h5.623v1.38l-3.469,3.907h3.713v1.38h-6.125v-1.38L129.564,43.271z"/>
		<path fill="#FFFFFF" d="M132.994,42.871c0.189-0.284,0.43-0.512,0.723-0.684s0.621-0.294,0.986-0.367s0.732-0.11,1.104-0.11
			c0.334,0,0.674,0.024,1.018,0.071c0.344,0.048,0.658,0.14,0.941,0.277c0.285,0.138,0.516,0.328,0.697,0.574
			c0.18,0.244,0.271,0.569,0.271,0.974v3.469c0,0.301,0.016,0.589,0.051,0.863c0.033,0.275,0.094,0.481,0.18,0.619h-1.855
			c-0.035-0.103-0.064-0.208-0.084-0.315c-0.023-0.107-0.037-0.217-0.047-0.329c-0.291,0.301-0.635,0.512-1.031,0.632
			c-0.395,0.12-0.799,0.181-1.211,0.181c-0.318,0-0.615-0.039-0.891-0.116s-0.516-0.197-0.723-0.36
			c-0.205-0.164-0.367-0.37-0.482-0.62c-0.117-0.248-0.174-0.546-0.174-0.889c0-0.379,0.066-0.69,0.199-0.936
			s0.305-0.44,0.516-0.587c0.211-0.146,0.451-0.255,0.723-0.329c0.27-0.072,0.543-0.131,0.818-0.174s0.545-0.077,0.812-0.104
			c0.266-0.025,0.504-0.064,0.709-0.115c0.207-0.052,0.369-0.127,0.49-0.226c0.119-0.099,0.176-0.243,0.168-0.433
			c0-0.197-0.033-0.354-0.098-0.471s-0.15-0.206-0.258-0.271s-0.23-0.107-0.373-0.129s-0.295-0.032-0.459-0.032
			c-0.361,0-0.645,0.077-0.85,0.231c-0.207,0.155-0.328,0.413-0.361,0.774h-1.832C132.697,43.512,132.805,43.154,132.994,42.871z
			 M136.611,45.456c-0.115,0.039-0.24,0.071-0.373,0.097c-0.133,0.026-0.273,0.048-0.42,0.064c-0.146,0.018-0.291,0.039-0.438,0.065
			c-0.139,0.025-0.273,0.06-0.406,0.103s-0.25,0.102-0.348,0.175c-0.1,0.072-0.18,0.165-0.24,0.276
			c-0.059,0.112-0.09,0.254-0.09,0.426c0,0.163,0.031,0.301,0.09,0.413c0.061,0.111,0.143,0.199,0.246,0.265
			c0.104,0.064,0.223,0.109,0.361,0.135c0.137,0.026,0.277,0.039,0.426,0.039c0.359,0,0.639-0.061,0.838-0.181
			c0.197-0.12,0.344-0.265,0.438-0.433c0.094-0.167,0.152-0.337,0.174-0.509s0.033-0.31,0.033-0.413v-0.684
			C136.824,45.364,136.729,45.418,136.611,45.456z"/>
		<path fill="#FFFFFF" d="M143.363,41.891v1.226h-1.342v3.301c0,0.31,0.051,0.516,0.154,0.619s0.311,0.155,0.619,0.155
			c0.104,0,0.203-0.005,0.297-0.014c0.094-0.008,0.184-0.021,0.271-0.038v1.418c-0.156,0.025-0.328,0.043-0.516,0.052
			c-0.189,0.009-0.375,0.013-0.555,0.013c-0.285,0-0.553-0.02-0.807-0.058c-0.254-0.039-0.477-0.114-0.67-0.226
			s-0.348-0.271-0.459-0.478c-0.111-0.206-0.168-0.477-0.168-0.812v-3.933h-1.107v-1.226h1.107v-1.999h1.832v1.999H143.363z"/>
		<path fill="#FFFFFF" d="M145.748,46.959c0.275,0.267,0.67,0.399,1.188,0.399c0.369,0,0.688-0.092,0.953-0.277
			c0.266-0.185,0.43-0.38,0.49-0.586h1.611c-0.258,0.799-0.652,1.371-1.186,1.715s-1.178,0.516-1.934,0.516
			c-0.525,0-0.998-0.084-1.42-0.252c-0.422-0.167-0.777-0.405-1.07-0.716c-0.291-0.309-0.518-0.679-0.676-1.108
			c-0.16-0.43-0.24-0.902-0.24-1.419c0-0.498,0.082-0.962,0.246-1.393c0.162-0.43,0.395-0.802,0.697-1.115
			c0.299-0.313,0.658-0.561,1.076-0.741c0.416-0.181,0.879-0.271,1.387-0.271c0.566,0,1.061,0.11,1.482,0.329
			c0.42,0.219,0.768,0.514,1.037,0.884c0.271,0.369,0.467,0.791,0.588,1.264c0.119,0.473,0.162,0.967,0.129,1.482h-4.811
			C145.322,46.263,145.473,46.692,145.748,46.959z M147.818,43.451c-0.219-0.24-0.553-0.361-1-0.361
			c-0.293,0-0.535,0.05-0.729,0.148c-0.193,0.1-0.348,0.222-0.465,0.368c-0.115,0.146-0.197,0.301-0.244,0.464
			c-0.047,0.164-0.076,0.31-0.084,0.438h2.979C148.189,44.044,148.037,43.692,147.818,43.451z"/>
	</g>
</g>
</svg>
